<svg width="1224" height="141" viewBox="0 0 1224 141" fill="none" xmlns="http://www.w3.org/2000/svg">
<path d="M1213.58 29.7519C1214.33 29.414 1215.05 28.9708 1215.72 28.4644C1217.66 26.987 1218.69 24.6031 1219.05 22.1772C1219.34 20.0677 1218.86 17.853 1217.78 15.7651C1217.19 14.6052 1216.37 13.4454 1215.32 12.4966C1214.05 11.3369 1212.37 10.557 1210.58 10.3046C1207.36 9.84178 1203.9 10.8978 1201.29 13.1769C1200.55 13.8311 1200.18 14.8016 1199.92 15.7298C1199.67 16.6791 1199.57 17.5861 1199.17 18.4089C1198.22 20.3499 1198.94 22.6067 1199.55 24.3994C1200.2 26.3398 1201.42 28.048 1203.11 29.0177C1204.06 29.5657 1204.98 30.0926 1205.99 30.2609C1207.7 30.5134 1209.17 30.3864 1210.46 30.4702C1211.62 30.4276 1212.57 30.1531 1213.49 29.8574C1213.51 29.8363 1213.55 29.8152 1213.58 29.7519L1211.64 25.2597C1211.41 25.2387 1211.26 25.3863 1211.05 25.4286C1210.84 25.492 1210.65 25.6608 1210.44 25.6398C1210.18 25.6188 1209.95 25.4712 1209.7 25.5135C1209.3 25.6191 1208.88 25.6615 1208.31 25.8304C1207.83 25.9572 1207.4 25.8308 1206.96 25.6834C1206.41 25.5148 1206.1 25.072 1205.66 24.6924C1205.17 24.3129 1204.56 23.828 1204.41 23.1742C1204.18 22.2461 1203.53 21.0862 1203.97 20.0103C1204.18 19.5461 1203.99 18.8712 1204.45 18.4913C1204.98 18.0693 1205 17.2044 1205.69 16.9299C1206.45 16.6343 1206.98 16.0013 1207.8 15.9377C1208.5 15.8952 1209.13 15.4731 1209.82 15.9158C1210.1 16.0845 1210.35 15.9156 1210.62 16.021C1211.55 16.4636 1212.6 16.4843 1213.21 17.3489C1213.59 17.8972 1213.85 18.4877 1213.95 19.0994C1214.01 19.479 1214.27 19.7743 1214.14 20.1962C1213.99 20.6182 1214.23 20.8922 1214.14 21.2298C1213.99 21.8416 1214.1 22.4532 1213.74 22.9596C1213.38 23.4027 1213.28 23.9512 1212.88 24.3099C1212.5 24.6687 1212.12 25.0485 1211.62 25.2597L1213.58 29.7519Z" fill="#F28D17" fill-opacity="0.5"/>
<path fill-rule="evenodd" clip-rule="evenodd" d="M1111.13 96.7819L1111.33 95.5773L1111.43 96.1078L1111.6 96.9304C1111.64 97.0884 1111.68 97.2515 1111.73 97.4147L1111.73 97.4156L1111.73 97.4162C1111.77 97.5795 1111.81 97.7428 1111.85 97.9005C1112.23 99.1662 1112.78 100.263 1113.33 101.17C1114.96 103.729 1116.32 104.94 1117.62 106.092V106.092L1117.8 106.252C1119 107.224 1120.24 108.15 1122.2 109.201C1122.13 109.235 1122.06 109.271 1121.98 109.309C1119.88 110.364 1118.07 111.926 1116.76 113.74C1115.15 115.984 1114.14 118.426 1113.47 120.886C1113.36 120.643 1113.22 120.42 1113.02 120.217C1112.93 120.132 1112.87 120.006 1112.83 119.9C1112.66 119.463 1112.45 119.055 1112.23 118.648C1111.89 117.976 1111.54 117.306 1111.39 116.505C1111.31 116.083 1111.06 115.514 1110.51 115.387C1109.9 115.261 1109.66 114.818 1109.45 114.312C1109.44 114.277 1109.43 114.242 1109.42 114.207C1109.38 114.071 1109.34 113.94 1109.16 113.89C1109.05 113.861 1108.95 113.836 1108.84 113.81C1108.27 113.673 1107.73 113.543 1107.6 112.794C1107.58 112.688 1107.41 112.604 1107.31 112.625C1107.14 112.639 1107.02 112.578 1106.91 112.517C1106.86 112.487 1106.8 112.457 1106.74 112.436C1106.57 112.375 1106.41 112.301 1106.25 112.228C1105.8 112.021 1105.36 111.815 1104.8 111.909C1104.61 111.951 1104.57 111.846 1104.5 111.677C1104.19 110.918 1103.66 110.327 1102.88 110.138C1102.25 109.983 1101.7 109.694 1101.16 109.366C1102.77 108.404 1104.28 107.269 1105.68 105.981C1107.13 104.609 1108.46 103.027 1109.49 101.212C1110.01 100.305 1110.43 99.3345 1110.75 98.3218C1110.86 98.0033 1110.94 97.6575 1111.01 97.3143C1111.05 97.1346 1111.09 96.9557 1111.13 96.7819ZM1095.08 106.651C1095.17 106.612 1095.27 106.573 1095.36 106.533L1095.36 106.533L1095.38 106.527C1096.34 106.149 1097.2 105.812 1098.2 105.266C1100.33 104.063 1101.53 103.177 1102.64 102.269L1102.69 102.23C1103.75 101.314 1104.87 100.344 1106.01 98.5135C1106.37 97.9016 1106.73 97.1844 1106.96 96.4248L1107.13 95.8553L1107.32 95.0748C1107.44 94.5494 1107.57 94.003 1107.69 93.4565L1107.69 93.4504C1108.2 91.2775 1108.75 89.1046 1109.23 87.3747C1109.7 85.7396 1110.22 86.0931 1110.94 86.5766C1111.12 86.6983 1111.31 86.828 1111.52 86.9364C1111.75 86.9738 1111.99 87.0031 1112.23 86.9951C1113.37 86.9524 1113.62 87.6905 1113.72 88.2812C1114.19 90.4747 1114.72 92.626 1115.28 94.7774L1115.64 96.1063C1115.7 96.2542 1115.76 96.4056 1115.81 96.5577C1115.89 96.7743 1115.97 96.9922 1116.06 97.203C1116.4 97.9199 1116.82 98.5947 1117.31 99.2275C1118.3 100.514 1119.54 101.61 1120.89 102.58C1123.63 104.498 1126.79 105.932 1129.95 106.943C1130.5 107.133 1131.06 107.364 1131.61 107.66C1131.68 107.695 1131.74 107.73 1131.81 107.765C1132.81 108.295 1133.84 108.844 1133.49 110.802L1133.47 110.88C1133.48 110.916 1133.48 110.954 1133.48 110.992C1133.59 112.572 1133.18 112.582 1132.36 112.602C1132.06 112.609 1131.71 112.617 1131.31 112.701C1129.44 113.103 1128.11 113.209 1126.89 113.251L1126.09 113.252C1126.01 113.252 1125.99 113.252 1125.8 113.294C1125.37 113.372 1124.94 113.541 1124.49 113.717V113.717L1124.39 113.758C1122.36 114.751 1121.38 115.742 1120.47 116.84C1119.59 117.958 1118.72 119.182 1117.84 121.545C1117.23 123.169 1116.72 125.131 1116.22 127.515C1115.69 129.814 1115.13 132.114 1114.62 133.949C1114.29 135.122 1113.95 135.332 1113.53 135.188C1113.46 135.262 1113.38 135.335 1113.3 135.404C1112.56 135.995 1112.01 135.953 1111.72 135.32C1111.64 135.12 1111.6 134.893 1111.56 134.663C1111.54 134.531 1111.51 134.397 1111.48 134.266C1111.47 134.111 1111.43 133.962 1111.37 133.815C1111.26 133.66 1111.19 133.492 1111.16 133.32C1111.1 133.159 1111.04 132.998 1111.02 132.832C1110.95 132.341 1110.79 131.875 1110.62 131.408C1110.52 131.133 1110.42 130.857 1110.34 130.575C1110.29 130.385 1110.22 130.195 1110.16 130.005C1110.07 129.752 1109.98 129.499 1109.92 129.246C1109.87 128.993 1109.87 128.729 1109.86 128.462C1109.85 128.196 1109.85 127.927 1109.8 127.664C1109.68 127.128 1109.61 126.592 1109.54 126.045C1109.53 125.924 1109.52 125.803 1109.5 125.681C1109.46 125.39 1109.41 125.114 1109.36 124.827C1109.35 124.782 1109.34 124.736 1109.33 124.69C1109.25 124.437 1109.16 124.205 1109.06 123.952C1108.99 123.813 1108.9 123.681 1108.82 123.548C1108.59 123.194 1108.36 122.834 1108.4 122.328C1108.4 122.17 1108.26 122.086 1108.12 122.006C1108.11 122.001 1108.1 121.996 1108.09 121.99C1107.86 121.864 1107.73 121.695 1107.73 121.463C1107.73 121.084 1107.46 120.894 1107.16 120.767C1106.72 120.578 1106.4 120.325 1106.3 119.861C1106.23 119.497 1105.93 119.347 1105.63 119.201C1105.48 119.126 1105.34 119.053 1105.22 118.954C1105.03 118.796 1104.85 118.622 1104.66 118.448C1104.48 118.274 1104.3 118.1 1104.11 117.942C1103.77 117.689 1103.37 117.499 1102.99 117.352C1102.94 117.329 1102.88 117.314 1102.83 117.299C1102.63 117.242 1102.47 117.195 1102.48 116.846C1102.5 116.614 1102.34 116.466 1102.17 116.466C1101.87 116.445 1101.64 116.29 1101.42 116.136C1101.2 115.989 1100.99 115.844 1100.71 115.813C1100.24 115.757 1099.86 115.502 1099.48 115.245C1099.29 115.118 1099.11 114.99 1098.9 114.885C1098.88 114.873 1098.85 114.861 1098.82 114.848C1098.66 114.773 1098.49 114.696 1098.29 114.696C1098.28 114.696 1098.27 114.696 1098.25 114.696C1097.97 114.697 1097.68 114.698 1097.58 114.295C1097.55 114.232 1097.53 114.19 1097.47 114.169C1096.98 114.073 1096.55 113.854 1096.11 113.636C1095.69 113.422 1095.27 113.209 1094.8 113.115C1094.49 113.065 1094.2 112.955 1093.91 112.843C1093.58 112.718 1093.25 112.591 1092.88 112.546C1092.1 112.462 1091.11 112.167 1090.27 111.83L1090.12 111.788C1089.19 111.409 1089.02 110.713 1089.44 109.32C1089.72 108.392 1090.2 107.696 1090.71 107.042C1090.94 106.767 1091.21 106.599 1091.49 106.641C1091.62 106.659 1091.75 106.656 1091.88 106.653C1092.2 106.645 1092.53 106.637 1092.81 106.935C1093.13 107.252 1093.57 107.252 1094.03 106.851C1094.42 106.511 1094.79 106.471 1095.08 106.651Z" fill="#F28D17" fill-opacity="0.5"/>
<path d="M128.576 23.7519C129.334 23.414 130.05 22.9708 130.724 22.4644C132.661 20.987 133.692 18.6031 134.049 16.1772C134.343 14.0677 133.858 11.853 132.783 9.76512C132.193 8.60519 131.371 7.44537 130.318 6.49656C129.053 5.33688 127.368 4.55705 125.578 4.3046C122.356 3.84178 118.902 4.89776 116.291 7.17687C115.554 7.83105 115.176 8.80155 114.923 9.72978C114.671 10.6791 114.566 11.5861 114.166 12.4089C113.219 14.3499 113.936 16.6067 114.548 18.3994C115.201 20.3398 116.423 22.048 118.109 23.0177C119.057 23.5657 119.983 24.0926 120.994 24.2609C122.7 24.5134 124.175 24.3864 125.459 24.4702C126.618 24.4276 127.565 24.1531 128.492 23.8574C128.513 23.8363 128.555 23.8152 128.576 23.7519L126.637 19.2597C126.405 19.2387 126.258 19.3863 126.047 19.4286C125.836 19.492 125.647 19.6608 125.437 19.6398C125.184 19.6188 124.952 19.4712 124.699 19.5135C124.299 19.6191 123.878 19.6615 123.309 19.8304C122.825 19.9572 122.404 19.8308 121.962 19.6834C121.414 19.5148 121.098 19.072 120.655 18.6924C120.171 18.3129 119.56 17.828 119.412 17.1742C119.18 16.2461 118.527 15.0862 118.969 14.0103C119.179 13.5461 118.989 12.8712 119.453 12.4913C119.979 12.0693 120 11.2044 120.695 10.9299C121.453 10.6343 121.979 10.0013 122.8 9.93766C123.495 9.8952 124.127 9.47314 124.822 9.91583C125.096 10.0845 125.349 9.91562 125.622 10.021C126.549 10.4636 127.602 10.4843 128.213 11.3489C128.593 11.8972 128.845 12.4877 128.951 13.0994C129.014 13.479 129.267 13.7743 129.141 14.1962C128.994 14.6182 129.226 14.8922 129.141 15.2298C128.994 15.8416 129.1 16.4532 128.742 16.9596C128.384 17.4027 128.279 17.9512 127.879 18.3099C127.5 18.6687 127.121 19.0485 126.616 19.2597L128.576 23.7519Z" fill="#F28D17" fill-opacity="0.5"/>
<path fill-rule="evenodd" clip-rule="evenodd" d="M26.1288 90.7819L26.3287 89.5773L26.431 90.1078L26.5997 90.9304C26.6419 91.0884 26.684 91.2515 26.7261 91.4147L26.7263 91.4156L26.7265 91.4162C26.7686 91.5795 26.8108 91.7428 26.8529 91.9005C27.2324 93.1662 27.7804 94.2628 28.3284 95.1696C29.9597 97.7294 31.3213 98.9404 32.6157 100.092V100.092L32.7951 100.252C34.0009 101.224 35.2371 102.15 37.1995 103.201C37.1271 103.235 37.0551 103.271 36.9832 103.309C34.8776 104.364 33.067 105.926 31.7621 107.74C30.1451 109.984 29.1405 112.426 28.4651 114.886C28.3646 114.643 28.2182 114.42 28.0156 114.217C27.9312 114.132 27.868 114.006 27.8259 113.9C27.6587 113.463 27.4466 113.055 27.2349 112.648C26.8855 111.976 26.537 111.306 26.3925 110.505C26.308 110.083 26.0551 109.514 25.5075 109.387C24.8968 109.261 24.6649 108.818 24.4541 108.312C24.441 108.277 24.4307 108.242 24.4206 108.207C24.381 108.071 24.3431 107.94 24.159 107.89C24.0548 107.861 23.9493 107.836 23.8444 107.81C23.2713 107.673 22.725 107.543 22.6001 106.794C22.5791 106.688 22.4106 106.604 22.3053 106.625C22.1368 106.639 22.0243 106.578 21.9121 106.517C21.8558 106.487 21.7996 106.457 21.7364 106.436C21.5713 106.375 21.4117 106.301 21.2527 106.228C20.8036 106.021 20.3585 105.815 19.7987 105.909C19.6092 105.951 19.567 105.846 19.5038 105.677C19.1876 104.918 18.6608 104.327 17.8815 104.138C17.2509 103.983 16.6957 103.694 16.1611 103.366C17.7727 102.404 19.2833 101.269 20.6776 99.9809C22.1303 98.6092 23.4564 97.0265 24.4878 95.2123C25.0139 94.305 25.4349 93.3345 25.7504 92.3218C25.8607 92.0033 25.9351 91.6575 26.0086 91.3143C26.0471 91.1346 26.0854 90.9557 26.1288 90.7819ZM10.0818 100.651C10.1741 100.612 10.266 100.573 10.3579 100.533L10.3582 100.533L10.3752 100.527C11.3369 100.149 12.196 99.8122 13.2008 99.2665C15.3275 98.0633 16.5276 97.1769 17.6435 96.2695L17.6889 96.2302C18.7493 95.3135 19.8704 94.344 21.0118 92.5135C21.3695 91.9016 21.7274 91.1844 21.9586 90.4248L22.1269 89.8553L22.3162 89.0748C22.4419 88.5494 22.5675 88.003 22.6932 87.4565L22.6947 87.4504C23.1993 85.2775 23.746 83.1046 24.2298 81.3747C24.6956 79.7396 25.2194 80.0931 25.9365 80.5766C26.1166 80.6983 26.3091 80.828 26.5157 80.9364C26.7457 80.9738 26.9868 81.0031 27.2278 80.9951C28.365 80.9524 28.6182 81.6905 28.7237 82.2812C29.1879 84.4747 29.715 86.626 30.2845 88.7774L30.6432 90.1063C30.704 90.2542 30.7577 90.4056 30.8116 90.5577C30.8885 90.7743 30.9656 90.9922 31.0648 91.203C31.402 91.9199 31.8234 92.5947 32.308 93.2275C33.2985 94.5138 34.5415 95.6103 35.8898 96.58C38.6283 98.4984 41.7878 99.9316 44.9473 100.943C45.4951 101.133 46.0637 101.364 46.6115 101.66C46.6772 101.695 46.7436 101.73 46.8101 101.765C47.8084 102.295 48.8416 102.844 48.487 104.802L48.4729 104.88C48.4766 104.916 48.48 104.954 48.483 104.992C48.5919 106.572 48.1774 106.582 47.3571 106.602C47.0607 106.609 46.7113 106.617 46.3144 106.701C44.4402 107.103 43.1136 107.209 41.892 107.251L41.0917 107.252C41.0075 107.252 40.9862 107.252 40.7969 107.294C40.3673 107.372 39.9378 107.541 39.4916 107.717V107.717L39.386 107.758C37.3644 108.751 36.375 109.742 35.4698 110.84C34.5857 111.958 33.7226 113.182 32.8389 115.545C32.2288 117.169 31.7242 119.131 31.2196 121.515C30.6941 123.814 30.1263 126.114 29.6215 127.949C29.2949 129.122 28.9467 129.332 28.5323 129.188C28.4606 129.262 28.3819 129.335 28.2951 129.404C27.5582 129.995 27.0106 129.953 26.7156 129.32C26.6351 129.12 26.5974 128.893 26.5589 128.663C26.5368 128.531 26.5142 128.397 26.4835 128.266C26.4704 128.111 26.4279 127.962 26.3731 127.815C26.2575 127.66 26.1937 127.492 26.1642 127.32C26.0976 127.159 26.0412 126.998 26.0195 126.832C25.9532 126.341 25.7868 125.875 25.62 125.408C25.5216 125.133 25.4231 124.857 25.3447 124.575C25.2906 124.385 25.2247 124.195 25.159 124.005C25.0712 123.752 24.9833 123.499 24.9231 123.246C24.8702 122.993 24.865 122.729 24.8595 122.462C24.8542 122.196 24.8488 121.927 24.7961 121.664C24.675 121.128 24.6106 120.592 24.5448 120.045C24.5303 119.924 24.5158 119.803 24.5004 119.681C24.464 119.39 24.4117 119.114 24.3574 118.827C24.349 118.782 24.3403 118.736 24.3317 118.69C24.2473 118.437 24.163 118.205 24.0575 117.952C23.9884 117.813 23.9033 117.681 23.8176 117.548C23.5904 117.194 23.3583 116.834 23.404 116.328C23.404 116.17 23.2557 116.086 23.1157 116.006C23.1064 116.001 23.0971 115.996 23.0879 115.99C22.8562 115.864 22.7298 115.695 22.7298 115.463C22.7296 115.084 22.4556 114.894 22.1608 114.767C21.7185 114.578 21.4026 114.325 21.2971 113.861C21.227 113.497 20.9252 113.347 20.6316 113.201C20.4828 113.126 20.336 113.053 20.2226 112.954C20.033 112.796 19.8487 112.622 19.6643 112.448C19.48 112.274 19.2956 112.1 19.106 111.942C18.769 111.689 18.3687 111.499 17.9896 111.352C17.9359 111.329 17.8813 111.314 17.8287 111.299C17.6338 111.242 17.4675 111.195 17.484 110.846C17.5049 110.614 17.3363 110.466 17.1678 110.466C16.8654 110.445 16.6405 110.29 16.4164 110.136C16.2035 109.989 15.9914 109.844 15.7144 109.813C15.2352 109.757 14.8597 109.502 14.4806 109.245C14.2932 109.118 14.105 108.99 13.9029 108.885C13.8755 108.873 13.8481 108.861 13.8206 108.848C13.6577 108.773 13.4902 108.696 13.292 108.696C13.2786 108.696 13.2652 108.696 13.2518 108.696C12.969 108.697 12.6765 108.698 12.5758 108.295C12.5548 108.232 12.5337 108.19 12.4705 108.169C11.9817 108.073 11.5464 107.854 11.1134 107.636C10.6881 107.422 10.265 107.209 9.79537 107.115C9.48759 107.065 9.19851 106.955 8.90611 106.843C8.57817 106.718 8.24603 106.591 7.87862 106.546C7.09934 106.462 6.10941 106.167 5.26686 105.83L5.11941 105.788C4.1926 105.409 4.02388 104.713 4.44457 103.32C4.718 102.392 5.20207 101.696 5.7073 101.042C5.93886 100.767 6.21262 100.599 6.48643 100.641C6.61583 100.659 6.74881 100.656 6.88223 100.653C7.20487 100.645 7.53011 100.637 7.81331 100.935C8.12933 101.252 8.57164 101.252 9.03483 100.851C9.41815 100.511 9.79126 100.471 10.0818 100.651Z" fill="#F28D17" fill-opacity="0.5"/>
</svg>
