<svg width="1440" height="254" viewBox="0 0 1440 254" fill="none" xmlns="http://www.w3.org/2000/svg">
<path d="M318.3 152.255L353.7 168.745" stroke="#3066BE" stroke-opacity="0.78" stroke-width="10"/>
<path d="M360 128V158" stroke="#3066BE" stroke-opacity="0.78" stroke-width="10"/>
<path d="M360 179V209" stroke="#3066BE" stroke-opacity="0.78" stroke-width="10"/>
<path d="M369 167.959L406.732 154.68" stroke="#3066BE" stroke-opacity="0.78" stroke-width="10"/>
<path d="M1349 27L1427.81 163.5H1270.19L1349 27Z" fill="white"/>
<path d="M52.5712 52.1549L195.384 118.844L66.223 209.179L52.5712 52.1549Z" fill="white"/>
<path d="M174.829 183.376C195.164 183.376 214.026 173.137 224.044 155.103C226.917 149.933 231.445 145.971 234.516 140.444C240.973 128.82 238.731 133.866 233.003 141.025C229.503 145.401 223.234 146.373 219.274 150.333C215.029 154.578 208.158 160.671 203.102 163.48C199.036 165.739 192.298 170.441 189.489 173.952C186.484 177.708 175.188 180.344 170.641 183.376" stroke="#3066BE" stroke-opacity="0.78" stroke-width="3" stroke-linecap="round"/>
<path d="M1140.28 135.208C1155.64 141.575 1158.08 143.321 1163.78 156.151C1168.39 166.513 1163.3 172.946 1159.13 181.282" stroke="#3066BE" stroke-opacity="0.78" stroke-width="3" stroke-linecap="round"/>
<path d="M1142.38 135.208C1168.13 145.257 1202.36 155.563 1217.77 124.737" stroke="#3066BE" stroke-opacity="0.78" stroke-width="3" stroke-linecap="round"/>
<path d="M1215.67 131.02C1202.76 140.8 1179.25 161.38 1195.9 178.024C1200 182.132 1205.35 187.877 1210.44 190.706C1219.88 195.951 1201.5 184.667 1198.92 183.376" stroke="#3066BE" stroke-opacity="0.78" stroke-width="3" stroke-linecap="round"/>
<path d="M1207.3 191.753C1196.49 185.425 1187.66 177.093 1174.84 177.093C1165.33 177.093 1154.43 187.819 1146.56 191.753" stroke="#3066BE" stroke-opacity="0.78" stroke-width="3" stroke-linecap="round"/>
</svg>
