<svg width="139" height="135" viewBox="0 0 139 135" fill="none" xmlns="http://www.w3.org/2000/svg">
<path d="M128.576 23.7519C129.334 23.414 130.05 22.9708 130.724 22.4644C132.661 20.987 133.692 18.6031 134.049 16.1772C134.343 14.0677 133.858 11.853 132.783 9.76512C132.193 8.60519 131.371 7.44537 130.318 6.49656C129.053 5.33688 127.368 4.55705 125.578 4.3046C122.356 3.84178 118.902 4.89776 116.291 7.17687C115.554 7.83105 115.176 8.80155 114.923 9.72978C114.671 10.6791 114.566 11.5861 114.166 12.4089C113.219 14.3499 113.936 16.6067 114.548 18.3994C115.201 20.3398 116.423 22.048 118.109 23.0177C119.057 23.5657 119.983 24.0926 120.994 24.2609C122.7 24.5134 124.175 24.3864 125.459 24.4702C126.618 24.4276 127.565 24.1531 128.492 23.8574C128.513 23.8363 128.555 23.8152 128.576 23.7519L126.637 19.2597C126.405 19.2387 126.258 19.3863 126.047 19.4286C125.836 19.492 125.647 19.6608 125.437 19.6398C125.184 19.6188 124.952 19.4712 124.699 19.5135C124.299 19.6191 123.878 19.6615 123.309 19.8304C122.825 19.9572 122.404 19.8308 121.962 19.6834C121.414 19.5148 121.098 19.072 120.655 18.6924C120.171 18.3129 119.56 17.828 119.412 17.1742C119.18 16.2461 118.527 15.0862 118.969 14.0103C119.179 13.5461 118.989 12.8712 119.453 12.4913C119.979 12.0693 120 11.2044 120.695 10.9299C121.453 10.6343 121.979 10.0013 122.8 9.93766C123.495 9.8952 124.127 9.47314 124.822 9.91583C125.096 10.0845 125.349 9.91562 125.622 10.021C126.549 10.4636 127.602 10.4843 128.213 11.3489C128.593 11.8972 128.845 12.4877 128.951 13.0994C129.014 13.479 129.267 13.7743 129.141 14.1962C128.994 14.6182 129.226 14.8922 129.141 15.2298C128.994 15.8416 129.1 16.4532 128.742 16.9596C128.384 17.4027 128.279 17.9512 127.879 18.3099C127.5 18.6687 127.121 19.0485 126.616 19.2597L128.576 23.7519Z" fill="#F28D17"/>
<path fill-rule="evenodd" clip-rule="evenodd" d="M26.1289 90.7819L26.3287 89.5773L26.4311 90.1078L26.5998 90.9304C26.6419 91.0884 26.684 91.2515 26.7262 91.4147L26.7264 91.4156L26.7266 91.4162C26.7687 91.5795 26.8108 91.7428 26.8529 91.9005C27.2325 93.1662 27.7805 94.2628 28.3284 95.1696C29.9598 97.7294 31.3214 98.9404 32.6158 100.092V100.092L32.7952 100.252C34.0009 101.224 35.2372 102.15 37.1996 103.201C37.1271 103.235 37.0551 103.271 36.9833 103.309C34.8777 104.364 33.0671 105.926 31.7622 107.74C30.1451 109.984 29.1405 112.426 28.4651 114.886C28.3647 114.643 28.2183 114.42 28.0157 114.217C27.9312 114.132 27.8681 114.006 27.8259 113.9C27.6587 113.463 27.4466 113.055 27.235 112.648C26.8856 111.976 26.537 111.306 26.3926 110.505C26.3081 110.083 26.0552 109.514 25.5076 109.387C24.8968 109.261 24.665 108.818 24.4541 108.312C24.4411 108.277 24.4308 108.242 24.4207 108.207C24.3811 108.071 24.3431 107.94 24.1591 107.89C24.0548 107.861 23.9493 107.836 23.8444 107.81C23.2714 107.673 22.7251 107.543 22.6002 106.794C22.5791 106.688 22.4106 106.604 22.3053 106.625C22.1368 106.639 22.0244 106.578 21.9121 106.517C21.8559 106.487 21.7997 106.457 21.7365 106.436C21.5714 106.375 21.4117 106.301 21.2527 106.228C20.8037 106.021 20.3586 105.815 19.7988 105.909C19.6092 105.951 19.5671 105.846 19.5038 105.677C19.1877 104.918 18.6609 104.327 17.8815 104.138C17.2509 103.983 16.6958 103.694 16.1612 103.366C17.7728 102.404 19.2833 101.269 20.6777 99.9809C22.1303 98.6092 23.4565 97.0265 24.4878 95.2123C25.0139 94.305 25.4349 93.3345 25.7504 92.3218C25.8608 92.0033 25.9351 91.6575 26.0086 91.3143C26.0472 91.1346 26.0855 90.9557 26.1289 90.7819ZM10.0819 100.651C10.1742 100.612 10.2661 100.573 10.358 100.533L10.3582 100.533L10.3752 100.527C11.337 100.149 12.1961 99.8122 13.2009 99.2665C15.3275 98.0633 16.5277 97.1769 17.6436 96.2695L17.689 96.2302C18.7493 95.3135 19.8705 94.344 21.0118 92.5135C21.3696 91.9016 21.7274 91.1844 21.9587 90.4248L22.1269 89.8553L22.3163 89.0748C22.442 88.5494 22.5675 88.003 22.6933 87.4565L22.6947 87.4504C23.1993 85.2775 23.7461 83.1046 24.2298 81.3747C24.6957 79.7396 25.2195 80.0931 25.9366 80.5766C26.1167 80.6983 26.3092 80.828 26.5158 80.9364C26.7457 80.9738 26.9869 81.0031 27.2278 80.9951C28.3651 80.9524 28.6182 81.6905 28.7238 82.2812C29.1879 84.4747 29.7151 86.626 30.2846 88.7774L30.6432 90.1063C30.7041 90.2542 30.7578 90.4056 30.8117 90.5577C30.8886 90.7743 30.9657 90.9922 31.0649 91.203C31.402 91.9199 31.8235 92.5947 32.3081 93.2275C33.2985 94.5138 34.5415 95.6103 35.8898 96.58C38.6283 98.4984 41.7879 99.9316 44.9474 100.943C45.4952 101.133 46.0638 101.364 46.6116 101.66C46.6773 101.695 46.7436 101.73 46.8102 101.765C47.8085 102.295 48.8417 102.844 48.487 104.802L48.4729 104.88C48.4767 104.916 48.4801 104.954 48.483 104.992C48.5919 106.572 48.1774 106.582 47.3571 106.602C47.0608 106.609 46.7114 106.617 46.3144 106.701C44.4402 107.103 43.1136 107.209 41.8921 107.251L41.0918 107.252C41.0076 107.252 40.9863 107.252 40.797 107.294C40.3673 107.372 39.9379 107.541 39.4916 107.717V107.717L39.3861 107.758C37.3645 108.751 36.3751 109.742 35.4699 110.84C34.5858 111.958 33.7227 113.182 32.839 115.545C32.2289 117.169 31.7243 119.131 31.2196 121.515C30.6942 123.814 30.1264 126.114 29.6216 127.949C29.2949 129.122 28.9468 129.332 28.5323 129.188C28.4607 129.262 28.3819 129.335 28.2952 129.404C27.5583 129.995 27.0107 129.953 26.7156 129.32C26.6352 129.12 26.5975 128.893 26.5589 128.663C26.5368 128.531 26.5143 128.397 26.4835 128.266C26.4705 128.111 26.4279 127.962 26.3732 127.815C26.2576 127.66 26.1937 127.492 26.1643 127.32C26.0977 127.159 26.0413 126.998 26.0196 126.832C25.9532 126.341 25.7869 125.875 25.6201 125.408C25.5217 125.133 25.4231 124.857 25.3448 124.575C25.2907 124.385 25.2247 124.195 25.159 124.005C25.0712 123.752 24.9834 123.499 24.9232 123.246C24.8703 122.993 24.865 122.729 24.8596 122.462C24.8543 122.196 24.8488 121.927 24.7962 121.664C24.6751 121.128 24.6106 120.592 24.5449 120.045C24.5304 119.924 24.5158 119.803 24.5005 119.681C24.464 119.39 24.4118 119.114 24.3575 118.827C24.349 118.782 24.3404 118.736 24.3318 118.69C24.2473 118.437 24.1631 118.205 24.0576 117.952C23.9885 117.813 23.9034 117.681 23.8177 117.548C23.5904 117.194 23.3584 116.834 23.4041 116.328C23.4041 116.17 23.2558 116.086 23.1157 116.006C23.1065 116.001 23.0972 115.996 23.0879 115.99C22.8563 115.864 22.7299 115.695 22.7299 115.463C22.7297 115.084 22.4557 114.894 22.1608 114.767C21.7186 114.578 21.4027 114.325 21.2972 113.861C21.227 113.497 20.9253 113.347 20.6317 113.201C20.4828 113.126 20.3361 113.053 20.2227 112.954C20.0331 112.796 19.8487 112.622 19.6644 112.448C19.48 112.274 19.2957 112.1 19.1061 111.942C18.769 111.689 18.3688 111.499 17.9897 111.352C17.936 111.329 17.8813 111.314 17.8288 111.299C17.6339 111.242 17.4676 111.195 17.484 110.846C17.505 110.614 17.3364 110.466 17.1679 110.466C16.8655 110.445 16.6405 110.29 16.4164 110.136C16.2036 109.989 15.9915 109.844 15.7145 109.813C15.2353 109.757 14.8597 109.502 14.4807 109.245C14.2933 109.118 14.105 108.99 13.9029 108.885C13.8756 108.873 13.8482 108.861 13.8207 108.848C13.6577 108.773 13.4903 108.696 13.2921 108.696C13.2787 108.696 13.2653 108.696 13.2519 108.696C12.969 108.697 12.6766 108.698 12.5759 108.295C12.5548 108.232 12.5338 108.19 12.4706 108.169C11.9818 108.073 11.5465 107.854 11.1134 107.636C10.6882 107.422 10.265 107.209 9.79543 107.115C9.48765 107.065 9.19857 106.955 8.90617 106.843C8.57823 106.718 8.24609 106.591 7.87869 106.546C7.0994 106.462 6.10947 106.167 5.26692 105.83L5.11947 105.788C4.19266 105.409 4.02394 104.713 4.44463 103.32C4.71806 102.392 5.20213 101.696 5.70736 101.042C5.93892 100.767 6.21269 100.599 6.48649 100.641C6.61589 100.659 6.74887 100.656 6.88229 100.653C7.20494 100.645 7.53017 100.637 7.81338 100.935C8.12939 101.252 8.5717 101.252 9.03489 100.851C9.41821 100.511 9.79132 100.471 10.0819 100.651Z" fill="#F28D17"/>
</svg>
