<svg width="147" height="147" viewBox="0 0 147 147" fill="none" xmlns="http://www.w3.org/2000/svg">
<g clip-path="url(#clip0)">
<path d="M73.5 0C84.9009 0 95.6899 2.59735 105.33 7.23012C101.384 10.3519 97.7253 13.3489 94.3163 16.2334C87.8229 13.8733 80.8175 12.5872 73.5125 12.5872C56.6922 12.5872 41.4577 19.4052 30.4439 30.4314C19.4177 41.4577 12.5996 56.6797 12.5996 73.5C12.5996 90.3203 19.4177 105.542 30.4439 116.569C41.4702 127.595 56.6922 134.413 73.5125 134.413C90.3328 134.413 105.567 127.595 116.581 116.569C127.607 105.542 134.425 90.3203 134.425 73.5C134.425 69.5041 134.038 65.5831 133.301 61.7994C136.461 57.6786 139.695 53.5703 143.004 49.4995C145.601 57.0168 147.012 65.0961 147.012 73.5C147.012 93.7918 138.783 112.173 125.484 125.472C112.186 138.771 93.8043 147 73.5125 147C53.2207 147 34.8395 138.771 21.5405 125.472C8.2291 112.173 0 93.7918 0 73.5C0 53.2082 8.2291 34.827 21.528 21.528C34.827 8.2291 53.2082 0 73.5 0ZM39.2599 61.4248L57.1916 61.1876L58.5278 61.5372C62.1491 63.6226 65.5581 66.0076 68.7424 68.7049C71.04 70.6529 73.2378 72.7757 75.3231 75.0734C81.7541 64.7215 88.6096 55.2187 95.8522 46.4776C103.782 36.8998 112.198 28.2087 121.039 20.2793L122.787 19.605H142.355L138.409 23.988C126.284 37.4618 115.282 51.3851 105.343 65.7454C95.4027 80.1182 86.5117 94.9531 78.6073 110.225L76.1473 114.97L73.8871 110.138C69.7164 101.184 64.7215 92.9676 58.765 85.6251C52.8086 78.2826 45.8782 71.7643 37.7989 66.2199L39.2599 61.4248Z" fill="#E76565"/>
</g>
<defs>
<clipPath id="clip0">
<rect width="147" height="147" fill="white"/>
</clipPath>
</defs>
</svg>
